<?xml version="1.0" encoding="UTF-8"?>
<!DOCTYPE svg PUBLIC "-//W3C//DTD SVG 1.1//EN" "http://www.w3.org/Graphics/SVG/1.1/DTD/svg11.dtd">
<svg xmlns="http://www.w3.org/2000/svg" version="1.1" width="176px" height="176px" style="shape-rendering:geometricPrecision; text-rendering:geometricPrecision; image-rendering:optimizeQuality; fill-rule:evenodd; clip-rule:evenodd" xmlns:xlink="http://www.w3.org/1999/xlink">
<g><path style="opacity:1" fill="#fcfcfc" d="M -0.5,-0.5 C 58.1667,-0.5 116.833,-0.5 175.5,-0.5C 175.5,58.1667 175.5,116.833 175.5,175.5C 116.833,175.5 58.1667,175.5 -0.5,175.5C -0.5,116.833 -0.5,58.1667 -0.5,-0.5 Z"/></g>
<g><path style="opacity:1" fill="#769951" d="M 65.5,23.5 C 64.6829,21.0314 64.1829,18.3647 64,15.5C 63.6958,19.5483 63.1958,23.5483 62.5,27.5C 58.0026,21.8324 56.836,15.499 59,8.5C 61.6762,7.42787 64.0095,8.09453 66,10.5C 65.923,14.8049 65.7563,19.1382 65.5,23.5 Z"/></g>
<g><path style="opacity:1" fill="#367928" d="M 65.5,23.5 C 65.9886,26.4665 67.1552,29.1332 69,31.5C 69.3825,36.4157 68.0491,36.749 65,32.5C 63.9055,30.9221 63.0722,29.2554 62.5,27.5C 63.1958,23.5483 63.6958,19.5483 64,15.5C 64.1829,18.3647 64.6829,21.0314 65.5,23.5 Z"/></g>
<g><path style="opacity:1" fill="#87a55f" d="M 110.5,38.5 C 109.143,36.7065 107.977,34.7065 107,32.5C 106.583,33.756 105.75,34.4226 104.5,34.5C 103.833,34.5 103.5,34.1667 103.5,33.5C 104.725,32.8478 105.392,31.6811 105.5,30C 103.483,25.4303 104.15,21.4303 107.5,18C 109.235,17.3486 110.902,17.5153 112.5,18.5C 113.66,22.4589 113.827,26.4589 113,30.5C 111.39,32.9393 110.556,35.606 110.5,38.5 Z"/></g>
<g><path style="opacity:1" fill="#55c640" d="M 103.5,33.5 C 103.5,34.1667 103.833,34.5 104.5,34.5C 103.89,36.4341 102.89,38.1007 101.5,39.5C 98.0843,41.5582 94.4176,42.8916 90.5,43.5C 89.8115,38.6604 88.1448,38.3271 85.5,42.5C 84.4104,41.6086 84.4104,40.6086 85.5,39.5C 84.3698,38.3777 83.7031,37.0443 83.5,35.5C 83.4701,34.5028 83.9701,33.8361 85,33.5C 91.3044,30.8418 97.4711,30.8418 103.5,33.5 Z"/></g>
<g><path style="opacity:1" fill="#46a134" d="M 83.5,35.5 C 83.7031,37.0443 84.3698,38.3777 85.5,39.5C 84.4104,40.6086 84.4104,41.6086 85.5,42.5C 88.1448,38.3271 89.8115,38.6604 90.5,43.5C 94.4176,42.8916 98.0843,41.5582 101.5,39.5C 101.423,42.0124 102.423,44.0124 104.5,45.5C 105.281,44.2634 106.281,43.2634 107.5,42.5C 108.594,43.868 108.26,45.0347 106.5,46C 102.445,46.2315 98.4452,46.7315 94.5,47.5C 90.0022,46.4594 85.6689,44.9594 81.5,43C 79.5743,42.5776 78.5743,41.4109 78.5,39.5C 79.2957,37.1643 80.9623,35.831 83.5,35.5 Z"/></g>
<g><path style="opacity:1" fill="#8b907a" d="M 74.5,40.5 C 74.2852,42.1788 74.9519,43.1788 76.5,43.5C 76.5,43.8333 76.5,44.1667 76.5,44.5C 75.1667,44.5 73.8333,44.5 72.5,44.5C 72.6596,42.847 73.3263,41.5137 74.5,40.5 Z"/></g>
<g><path style="opacity:1" fill="#5b4f66" d="M 72.5,44.5 C 73.8333,44.5 75.1667,44.5 76.5,44.5C 75.9002,45.8999 74.9002,46.8999 73.5,47.5C 71.6182,46.779 71.2848,45.779 72.5,44.5 Z"/></g>
<g><path style="opacity:1" fill="#5c5c5f" d="M 80.5,46.5 C 81.7777,46.7822 82.7777,47.4489 83.5,48.5C 83.6309,49.3764 83.2975,50.0431 82.5,50.5C 81.2949,49.4231 80.6282,48.0898 80.5,46.5 Z"/></g>
<g><path style="opacity:1" fill="#656d81" d="M 85.5,48.5 C 86.4916,48.3284 87.1583,48.6618 87.5,49.5C 87.5,49.8333 87.5,50.1667 87.5,50.5C 86.1667,50.5 85.5,49.8333 85.5,48.5 Z"/></g>
<g><path style="opacity:1" fill="#438b32" d="M 110.5,38.5 C 113.728,41.069 115.728,44.4023 116.5,48.5C 120.131,47.588 123.797,47.4213 127.5,48C 127.957,48.414 128.291,48.914 128.5,49.5C 126.855,50.6963 125.189,51.6963 123.5,52.5C 120.5,51.8333 117.5,51.1667 114.5,50.5C 114.349,53.7181 113.516,54.0515 112,51.5C 111.174,53.4054 110.007,53.7388 108.5,52.5C 109.167,51.8333 109.833,51.1667 110.5,50.5C 107.253,50.3507 104.919,52.0174 103.5,55.5C 100.833,55.5 98.1667,55.5 95.5,55.5C 95.4326,56.9587 95.7659,58.2921 96.5,59.5C 96.7995,63.2813 98.7995,65.4479 102.5,66C 99.1769,66.932 96.1769,66.432 93.5,64.5C 92.5084,64.6716 91.8417,64.3382 91.5,63.5C 92.1098,62.609 92.4431,61.609 92.5,60.5C 93.3201,56.7779 91.9868,54.4446 88.5,53.5C 90.1751,51.544 89.8418,50.2107 87.5,49.5C 87.1583,48.6618 86.4916,48.3284 85.5,48.5C 84.8333,48.5 84.1667,48.5 83.5,48.5C 82.7777,47.4489 81.7777,46.7822 80.5,46.5C 79.3634,45.2112 78.0301,44.2112 76.5,43.5C 74.9519,43.1788 74.2852,42.1788 74.5,40.5C 75.9587,40.5674 77.2921,40.2341 78.5,39.5C 78.5743,41.4109 79.5743,42.5776 81.5,43C 85.6689,44.9594 90.0022,46.4594 94.5,47.5C 98.4452,46.7315 102.445,46.2315 106.5,46C 108.26,45.0347 108.594,43.868 107.5,42.5C 106.281,43.2634 105.281,44.2634 104.5,45.5C 102.423,44.0124 101.423,42.0124 101.5,39.5C 102.89,38.1007 103.89,36.4341 104.5,34.5C 105.75,34.4226 106.583,33.756 107,32.5C 107.977,34.7065 109.143,36.7065 110.5,38.5 Z"/></g>
<g><path style="opacity:1" fill="#4f5a29" d="M 76.5,43.5 C 78.0301,44.2112 79.3634,45.2112 80.5,46.5C 80.6282,48.0898 81.2949,49.4231 82.5,50.5C 83.2975,50.0431 83.6309,49.3764 83.5,48.5C 84.1667,48.5 84.8333,48.5 85.5,48.5C 85.5,49.8333 86.1667,50.5 87.5,50.5C 87.1788,52.0481 86.1788,52.7148 84.5,52.5C 84.4011,55.6049 83.4011,58.2716 81.5,60.5C 80.7189,59.2713 80.2189,57.938 80,56.5C 79.0703,58.9659 78.237,58.7993 77.5,56C 77.9504,54.7147 78.6171,53.548 79.5,52.5C 78.132,51.4063 76.9653,51.7397 76,53.5C 75.6667,52.5 75.3333,51.5 75,50.5C 74.3131,52.5675 74.4798,54.5675 75.5,56.5C 75.1445,57.5223 74.4778,58.189 73.5,58.5C 71.2204,54.9266 71.2204,51.2599 73.5,47.5C 74.9002,46.8999 75.9002,45.8999 76.5,44.5C 76.5,44.1667 76.5,43.8333 76.5,43.5 Z"/></g>
<g><path style="opacity:1" fill="#355f25" d="M 123.5,52.5 C 122.048,53.3019 120.382,53.8019 118.5,54C 117.226,54.9772 117.226,55.8106 118.5,56.5C 117.306,57.2719 116.306,58.2719 115.5,59.5C 113.533,59.7394 111.699,59.4061 110,58.5C 109.487,59.5266 108.987,60.5266 108.5,61.5C 108.167,61.5 107.833,61.5 107.5,61.5C 106.817,59.8235 105.483,59.1568 103.5,59.5C 103.5,58.1667 103.5,56.8333 103.5,55.5C 104.919,52.0174 107.253,50.3507 110.5,50.5C 109.833,51.1667 109.167,51.8333 108.5,52.5C 110.007,53.7388 111.174,53.4054 112,51.5C 113.516,54.0515 114.349,53.7181 114.5,50.5C 117.5,51.1667 120.5,51.8333 123.5,52.5 Z"/></g>
<g><path style="opacity:1" fill="#736e22" d="M 103.5,55.5 C 103.5,56.8333 103.5,58.1667 103.5,59.5C 101.167,59.5 98.8333,59.5 96.5,59.5C 95.7659,58.2921 95.4326,56.9587 95.5,55.5C 98.1667,55.5 100.833,55.5 103.5,55.5 Z"/></g>
<g><path style="opacity:1" fill="#cabf94" d="M 53.5,55.5 C 52.5,55.5 51.5,55.5 50.5,55.5C 49.607,57.297 48.2737,58.6304 46.5,59.5C 45.5028,59.5299 44.8361,59.0299 44.5,58C 46.9013,54.6079 49.9013,53.7745 53.5,55.5 Z"/></g>
<g><path style="opacity:1" fill="#367a2c" d="M 50.5,55.5 C 51.5,55.5 52.5,55.5 53.5,55.5C 55.1567,58.8534 54.1567,60.8534 50.5,61.5C 50.5,59.5 50.5,57.5 50.5,55.5 Z"/></g>
<g><path style="opacity:1" fill="#91958f" d="M 88.5,53.5 C 91.9868,54.4446 93.3201,56.7779 92.5,60.5C 90.8333,60.5 89.1667,60.5 87.5,60.5C 87.448,58.0971 87.7814,55.7638 88.5,53.5 Z"/></g>
<g><path style="opacity:1" fill="#418639" d="M 117.5,62.5 C 116.508,62.6716 115.842,62.3382 115.5,61.5C 115.5,60.8333 115.5,60.1667 115.5,59.5C 116.306,58.2719 117.306,57.2719 118.5,56.5C 119.15,56.8039 119.817,57.1373 120.5,57.5C 123.95,55.7758 127.617,55.1091 131.5,55.5C 131.719,56.675 131.386,57.675 130.5,58.5C 126.49,60.7833 122.157,62.1167 117.5,62.5 Z"/></g>
<g><path style="opacity:1" fill="#6b6744" d="M 50.5,55.5 C 50.5,57.5 50.5,59.5 50.5,61.5C 48.5168,61.8432 47.1834,61.1765 46.5,59.5C 48.2737,58.6304 49.607,57.297 50.5,55.5 Z"/></g>
<g><path style="opacity:1" fill="#275320" d="M 115.5,61.5 C 115.842,62.3382 116.508,62.6716 117.5,62.5C 117.782,63.7777 118.449,64.7777 119.5,65.5C 117.219,65.0773 115.552,65.744 114.5,67.5C 113.5,67.5 112.5,67.5 111.5,67.5C 111.5,65.5 111.5,63.5 111.5,61.5C 112.833,61.5 114.167,61.5 115.5,61.5 Z"/></g>
<g><path style="opacity:1" fill="#334719" d="M 91.5,63.5 C 91.8417,64.3382 92.5084,64.6716 93.5,64.5C 93.7373,65.791 93.404,66.791 92.5,67.5C 92.1788,65.9519 91.1788,65.2852 89.5,65.5C 89.5,67.5 89.5,69.5 89.5,71.5C 88.1001,70.9002 87.1001,69.9002 86.5,68.5C 86.1961,67.8501 85.8627,67.1835 85.5,66.5C 81.6796,65.9632 78.3463,64.4632 75.5,62C 80.7493,62.8037 86.0826,63.3037 91.5,63.5 Z"/></g>
<g><path style="opacity:1" fill="#b4b086" d="M 72.5,59.5 C 72.0825,60.2216 71.4158,60.7216 70.5,61C 72.1193,61.2355 73.1193,62.0689 73.5,63.5C 73.5,65.8333 73.5,68.1667 73.5,70.5C 72.5,70.5 71.5,70.5 70.5,70.5C 70.5323,68.3812 69.5323,67.0478 67.5,66.5C 66.1667,65.8333 64.8333,65.1667 63.5,64.5C 65.9781,63.8051 67.9781,62.3051 69.5,60C 70.448,59.5172 71.448,59.3505 72.5,59.5 Z"/></g>
<g><path style="opacity:1" fill="#53983e" d="M 63.5,64.5 C 64.8333,65.1667 66.1667,65.8333 67.5,66.5C 65.7376,67.2623 64.7376,68.5956 64.5,70.5C 60.3806,69.2353 56.2139,67.9019 52,66.5C 49.5724,68.13 47.739,67.7967 46.5,65.5C 49.4815,64.1025 52.6481,63.1025 56,62.5C 58.4897,63.3357 60.9897,64.0024 63.5,64.5 Z"/></g>
<g><path style="opacity:1" fill="#7c712d" d="M 92.5,67.5 C 92.2014,69.4553 91.2014,70.7886 89.5,71.5C 89.5,69.5 89.5,67.5 89.5,65.5C 91.1788,65.2852 92.1788,65.9519 92.5,67.5 Z"/></g>
<g><path style="opacity:1" fill="#692477" d="M 107.5,61.5 C 107.833,61.5 108.167,61.5 108.5,61.5C 109.693,61.9704 110.36,62.9704 110.5,64.5C 109.918,68.1551 109.418,71.8218 109,75.5C 108.802,73.6183 108.302,71.9516 107.5,70.5C 107.167,69.8333 106.833,69.1667 106.5,68.5C 106.298,66.0504 106.631,63.717 107.5,61.5 Z"/></g>
<g><path style="opacity:1" fill="#3d8235" d="M 123.5,69.5 C 121.597,69.7959 119.93,70.4625 118.5,71.5C 114.918,71.7929 113.584,70.4596 114.5,67.5C 115.552,65.744 117.219,65.0773 119.5,65.5C 123.163,64.8875 126.83,64.7208 130.5,65C 131.369,66.4646 130.869,67.6313 129,68.5C 127.234,69.2335 125.401,69.5668 123.5,69.5 Z"/></g>
<g><path style="opacity:1" fill="#799652" d="M 46.5,65.5 C 47.739,67.7967 49.5724,68.13 52,66.5C 56.2139,67.9019 60.3806,69.2353 64.5,70.5C 63.4908,71.9391 63.8241,73.2724 65.5,74.5C 65.0431,75.2975 64.3764,75.6309 63.5,75.5C 61,74.3311 58.5,72.9978 56,71.5C 53.7536,70.4494 51.587,70.4494 49.5,71.5C 46.7744,70.0795 44.1078,69.4129 41.5,69.5C 42.5794,67.457 44.246,66.1237 46.5,65.5 Z"/></g>
<g><path style="opacity:1" fill="#939f93" d="M 123.5,69.5 C 123.389,70.1174 123.056,70.6174 122.5,71C 123.416,71.2784 124.082,71.7784 124.5,72.5C 122.833,72.5 121.167,72.5 119.5,72.5C 118.833,72.5 118.5,72.1667 118.5,71.5C 119.93,70.4625 121.597,69.7959 123.5,69.5 Z"/></g>
<g><path style="opacity:1" fill="#3b7d29" d="M 96.5,59.5 C 98.8333,59.5 101.167,59.5 103.5,59.5C 105.483,59.1568 106.817,59.8235 107.5,61.5C 106.631,63.717 106.298,66.0504 106.5,68.5C 103.676,68.108 100.676,68.108 97.5,68.5C 97.5,69.8333 97.5,71.1667 97.5,72.5C 99.9201,72.7076 102.253,72.3742 104.5,71.5C 105.429,72.6888 105.762,74.0222 105.5,75.5C 102.167,75.8333 98.8333,76.1667 95.5,76.5C 94.548,75.548 93.548,74.548 92.5,73.5C 90.1459,75.2461 89.1459,77.5794 89.5,80.5C 91.5,80.5 93.5,80.5 95.5,80.5C 99.0822,80.2709 102.416,80.2709 105.5,80.5C 105.5,81.1667 105.5,81.8333 105.5,82.5C 104.833,82.5 104.5,82.8333 104.5,83.5C 103.539,85.2646 103.205,87.2646 103.5,89.5C 100.748,89.578 98.0816,89.7446 95.5,90C 95.1667,89.6667 94.8333,89.3333 94.5,89C 96.1066,87.951 96.7733,86.451 96.5,84.5C 94.1667,84.5 91.8333,84.5 89.5,84.5C 89.5,87.1667 89.5,89.8333 89.5,92.5C 91.7925,92.7564 93.9592,92.4231 96,91.5C 98.1354,93.2785 100.635,93.9452 103.5,93.5C 103.423,94.7498 102.756,95.5831 101.5,96C 102.344,98.7 103.344,101.367 104.5,104C 104.355,104.772 104.022,105.439 103.5,106C 104.833,106.333 106.167,106.667 107.5,107C 104.803,110.376 103.137,113.876 102.5,117.5C 100.694,120.338 99.6941,120.005 99.5,116.5C 96.3537,116.882 93.3537,116.882 90.5,116.5C 90.5,115.5 90.5,114.5 90.5,113.5C 94.1221,111.697 94.1221,110.364 90.5,109.5C 87.7819,109.695 85.4486,110.695 83.5,112.5C 82.1854,110.865 82.1854,109.199 83.5,107.5C 82.6872,106.186 81.6872,105.019 80.5,104C 83.5327,100.429 82.8661,97.7624 78.5,96C 84.2293,95.3285 84.5626,94.3285 79.5,93C 84.593,91.4451 84.593,90.6118 79.5,90.5C 79.6495,89.448 79.4828,88.448 79,87.5C 78.3457,88.6956 77.8457,88.6956 77.5,87.5C 78.2305,84.8908 78.7305,82.2241 79,79.5C 80.1531,81.497 81.6531,81.8304 83.5,80.5C 82.6798,78.8888 81.3464,78.2222 79.5,78.5C 79.6038,75.9105 78.9371,73.5771 77.5,71.5C 77.8333,70.8333 78.1667,70.1667 78.5,69.5C 83.5752,70.8463 84.2418,70.013 80.5,67C 81.1667,66.8333 81.8333,66.6667 82.5,66.5C 83.8669,67.2255 85.2003,67.8921 86.5,68.5C 87.1001,69.9002 88.1001,70.9002 89.5,71.5C 91.2014,70.7886 92.2014,69.4553 92.5,67.5C 93.404,66.791 93.7373,65.791 93.5,64.5C 96.1769,66.432 99.1769,66.932 102.5,66C 98.7995,65.4479 96.7995,63.2813 96.5,59.5 Z"/></g>
<g><path style="opacity:1" fill="#b0926a" d="M 41.5,69.5 C 44.1078,69.4129 46.7744,70.0795 49.5,71.5C 49.5,71.8333 49.5,72.1667 49.5,72.5C 46.3914,73.7734 43.3914,75.2734 40.5,77C 39.6433,77.6891 38.9767,78.5224 38.5,79.5C 45.0137,81.4338 50.6803,80.1004 55.5,75.5C 56.209,76.404 57.209,76.7373 58.5,76.5C 58.5,77.5 58.5,78.5 58.5,79.5C 60.1992,79.3398 61.8659,79.5065 63.5,80C 61.5743,80.4224 60.5743,81.5891 60.5,83.5C 52.826,83.179 45.1593,82.679 37.5,82C 36.0267,81.2904 35.3601,80.1238 35.5,78.5C 35.2525,76.1417 35.9192,74.1417 37.5,72.5C 38.5451,71.1224 39.8784,70.1224 41.5,69.5 Z"/></g>
<g><path style="opacity:1" fill="#366d24" d="M 87.5,49.5 C 89.8418,50.2107 90.1751,51.544 88.5,53.5C 87.7814,55.7638 87.448,58.0971 87.5,60.5C 89.1667,60.5 90.8333,60.5 92.5,60.5C 92.4431,61.609 92.1098,62.609 91.5,63.5C 86.0826,63.3037 80.7493,62.8037 75.5,62C 78.3463,64.4632 81.6796,65.9632 85.5,66.5C 85.8627,67.1835 86.1961,67.8501 86.5,68.5C 85.2003,67.8921 83.8669,67.2255 82.5,66.5C 81.8333,66.6667 81.1667,66.8333 80.5,67C 84.2418,70.013 83.5752,70.8463 78.5,69.5C 78.1667,70.1667 77.8333,70.8333 77.5,71.5C 78.9371,73.5771 79.6038,75.9105 79.5,78.5C 81.3464,78.2222 82.6798,78.8888 83.5,80.5C 81.6531,81.8304 80.1531,81.497 79,79.5C 78.7305,82.2241 78.2305,84.8908 77.5,87.5C 77.8457,88.6956 78.3457,88.6956 79,87.5C 79.4828,88.448 79.6495,89.448 79.5,90.5C 84.593,90.6118 84.593,91.4451 79.5,93C 84.5626,94.3285 84.2293,95.3285 78.5,96C 82.8661,97.7624 83.5327,100.429 80.5,104C 81.6872,105.019 82.6872,106.186 83.5,107.5C 82.1854,109.199 82.1854,110.865 83.5,112.5C 83.1667,112.5 82.8333,112.5 82.5,112.5C 77.599,107.92 74.9324,102.253 74.5,95.5C 74.7523,90.6145 74.419,85.7812 73.5,81C 74.2961,79.9079 74.9628,78.7412 75.5,77.5C 74.9397,72.6763 74.273,68.0097 73.5,63.5C 73.1193,62.0689 72.1193,61.2355 70.5,61C 71.4158,60.7216 72.0825,60.2216 72.5,59.5C 73.1667,59.5 73.5,59.1667 73.5,58.5C 74.4778,58.189 75.1445,57.5223 75.5,56.5C 74.4798,54.5675 74.3131,52.5675 75,50.5C 75.3333,51.5 75.6667,52.5 76,53.5C 76.9653,51.7397 78.132,51.4063 79.5,52.5C 78.6171,53.548 77.9504,54.7147 77.5,56C 78.237,58.7993 79.0703,58.9659 80,56.5C 80.2189,57.938 80.7189,59.2713 81.5,60.5C 83.4011,58.2716 84.4011,55.6049 84.5,52.5C 86.1788,52.7148 87.1788,52.0481 87.5,50.5C 87.5,50.1667 87.5,49.8333 87.5,49.5 Z"/></g>
<g><path style="opacity:1" fill="#daba8b" d="M 49.5,72.5 C 52.216,72.3862 54.216,73.3862 55.5,75.5C 50.6803,80.1004 45.0137,81.4338 38.5,79.5C 38.9767,78.5224 39.6433,77.6891 40.5,77C 43.3914,75.2734 46.3914,73.7734 49.5,72.5 Z"/></g>
<g><path style="opacity:1" fill="#5a691e" d="M 106.5,68.5 C 106.833,69.1667 107.167,69.8333 107.5,70.5C 107.216,73.7766 107.549,76.9433 108.5,80C 107.552,80.4828 106.552,80.6495 105.5,80.5C 102.416,80.2709 99.0822,80.2709 95.5,80.5C 95.5,79.1667 95.5,77.8333 95.5,76.5C 98.8333,76.1667 102.167,75.8333 105.5,75.5C 105.762,74.0222 105.429,72.6888 104.5,71.5C 102.253,72.3742 99.9201,72.7076 97.5,72.5C 97.5,71.1667 97.5,69.8333 97.5,68.5C 100.676,68.108 103.676,68.108 106.5,68.5 Z"/></g>
<g><path style="opacity:1" fill="#426b2f" d="M 73.5,63.5 C 74.273,68.0097 74.9397,72.6763 75.5,77.5C 74.9628,78.7412 74.2961,79.9079 73.5,81C 74.419,85.7812 74.7523,90.6145 74.5,95.5C 73.6674,90.9273 72.6674,86.2606 71.5,81.5C 71.1667,81.1667 70.8333,80.8333 70.5,80.5C 69.4822,81.1925 68.4822,81.8592 67.5,82.5C 66.5084,82.6716 65.8417,82.3382 65.5,81.5C 65.7413,79.1137 65.0746,77.1137 63.5,75.5C 64.3764,75.6309 65.0431,75.2975 65.5,74.5C 63.8241,73.2724 63.4908,71.9391 64.5,70.5C 64.7376,68.5956 65.7376,67.2623 67.5,66.5C 69.5323,67.0478 70.5323,68.3812 70.5,70.5C 71.5,70.5 72.5,70.5 73.5,70.5C 73.5,68.1667 73.5,65.8333 73.5,63.5 Z"/></g>
<g><path style="opacity:1" fill="#989c94" d="M 95.5,76.5 C 95.5,77.8333 95.5,79.1667 95.5,80.5C 93.5,80.5 91.5,80.5 89.5,80.5C 89.1459,77.5794 90.1459,75.2461 92.5,73.5C 93.548,74.548 94.548,75.548 95.5,76.5 Z"/></g>
<g><path style="opacity:1" fill="#6f736d" d="M 124.5,73.5 C 124.33,78.1778 124.33,83.0112 124.5,88C 124.507,89.8122 123.84,91.3122 122.5,92.5C 122.863,93.1835 123.196,93.8501 123.5,94.5C 122.167,94.5 120.833,94.5 119.5,94.5C 119.5,93.5 119.5,92.5 119.5,91.5C 119.334,87.1539 119.501,82.8206 120,78.5C 120.743,76.068 122.243,74.4013 124.5,73.5 Z"/></g>
<g><path style="opacity:1" fill="#9d9e67" d="M 63.5,75.5 C 65.0746,77.1137 65.7413,79.1137 65.5,81.5C 63.8333,82.1667 62.1667,82.8333 60.5,83.5C 60.5743,81.5891 61.5743,80.4224 63.5,80C 61.8659,79.5065 60.1992,79.3398 58.5,79.5C 58.5,78.5 58.5,77.5 58.5,76.5C 57.209,76.7373 56.209,76.404 55.5,75.5C 54.216,73.3862 52.216,72.3862 49.5,72.5C 49.5,72.1667 49.5,71.8333 49.5,71.5C 51.587,70.4494 53.7536,70.4494 56,71.5C 58.5,72.9978 61,74.3311 63.5,75.5 Z"/></g>
<g><path style="opacity:1" fill="#287321" d="M 119.5,72.5 C 121.167,72.5 122.833,72.5 124.5,72.5C 124.5,72.8333 124.5,73.1667 124.5,73.5C 122.243,74.4013 120.743,76.068 120,78.5C 119.501,82.8206 119.334,87.1539 119.5,91.5C 118.221,92.968 116.554,93.6347 114.5,93.5C 114.5,88.1667 114.5,82.8333 114.5,77.5C 112.821,77.7148 111.821,77.0481 111.5,75.5C 114.354,74.7949 117.021,73.7949 119.5,72.5 Z"/></g>
<g><path style="opacity:1" fill="#3a4332" d="M 115.5,59.5 C 115.5,60.1667 115.5,60.8333 115.5,61.5C 114.167,61.5 112.833,61.5 111.5,61.5C 111.5,63.5 111.5,65.5 111.5,67.5C 112.5,67.5 113.5,67.5 114.5,67.5C 113.584,70.4596 114.918,71.7929 118.5,71.5C 118.5,72.1667 118.833,72.5 119.5,72.5C 117.021,73.7949 114.354,74.7949 111.5,75.5C 110.754,79.8518 110.087,84.3518 109.5,89C 109.845,91.862 110.845,94.362 112.5,96.5C 111.5,96.5 110.5,96.5 109.5,96.5C 109.5,99.1667 109.5,101.833 109.5,104.5C 108.167,104.5 106.833,104.5 105.5,104.5C 105.5,101.5 105.5,98.5 105.5,95.5C 106.183,92.4728 107.183,89.4728 108.5,86.5C 108.457,85.5836 108.124,84.9169 107.5,84.5C 106.833,83.8333 106.167,83.1667 105.5,82.5C 105.5,81.8333 105.5,81.1667 105.5,80.5C 106.552,80.6495 107.552,80.4828 108.5,80C 107.549,76.9433 107.216,73.7766 107.5,70.5C 108.302,71.9516 108.802,73.6183 109,75.5C 109.418,71.8218 109.918,68.1551 110.5,64.5C 110.36,62.9704 109.693,61.9704 108.5,61.5C 108.987,60.5266 109.487,59.5266 110,58.5C 111.699,59.4061 113.533,59.7394 115.5,59.5 Z"/></g>
<g><path style="opacity:1" fill="#8c7a5b" d="M 35.5,78.5 C 35.3601,80.1238 36.0267,81.2904 37.5,82C 45.1593,82.679 52.826,83.179 60.5,83.5C 62.1667,82.8333 63.8333,82.1667 65.5,81.5C 65.8417,82.3382 66.5084,82.6716 67.5,82.5C 63.2835,84.9741 58.6168,86.3074 53.5,86.5C 47.4296,85.6486 41.4296,84.4819 35.5,83C 34.1991,81.3845 34.1991,79.8845 35.5,78.5 Z"/></g>
<g><path style="opacity:1" fill="#7e1d94" d="M 105.5,82.5 C 106.167,83.1667 106.833,83.8333 107.5,84.5C 107.912,86.9726 106.912,88.3059 104.5,88.5C 104.5,86.8333 104.5,85.1667 104.5,83.5C 104.5,82.8333 104.833,82.5 105.5,82.5 Z"/></g>
<g><path style="opacity:1" fill="#dbdbdb" d="M 37.5,72.5 C 35.9192,74.1417 35.2525,76.1417 35.5,78.5C 34.1991,79.8845 34.1991,81.3845 35.5,83C 41.4296,84.4819 47.4296,85.6486 53.5,86.5C 58.6168,86.3074 63.2835,84.9741 67.5,82.5C 68.4822,81.8592 69.4822,81.1925 70.5,80.5C 70.8333,80.8333 71.1667,81.1667 71.5,81.5C 72.6674,86.2606 73.6674,90.9273 74.5,95.5C 74.9324,102.253 77.599,107.92 82.5,112.5C 83.5,113.833 84.5,115.167 85.5,116.5C 84.0605,118.588 83.3939,120.921 83.5,123.5C 83.8656,124.695 84.699,125.361 86,125.5C 88.9768,125.012 91.4768,123.678 93.5,121.5C 94.2975,121.957 94.6309,122.624 94.5,123.5C 91.5229,125.064 90.8562,127.397 92.5,130.5C 91.7515,131.531 91.0848,132.698 90.5,134C 88.5273,134.495 86.5273,134.662 84.5,134.5C 84.2865,132.856 84.6198,131.356 85.5,130C 83.2427,129.888 81.076,130.388 79,131.5C 77.7441,131.352 76.5774,131.018 75.5,130.5C 75.1667,129.833 74.8333,129.167 74.5,128.5C 76.1042,127.713 76.7709,126.38 76.5,124.5C 70.3916,122.849 65.2249,119.515 61,114.5C 59.1763,109.161 56.343,104.494 52.5,100.5C 45.4098,103.103 38.0764,104.103 30.5,103.5C 33.2154,100.786 35.5488,97.7861 37.5,94.5C 38.3686,92.283 38.702,89.9496 38.5,87.5C 36.0504,87.298 33.717,87.6314 31.5,88.5C 30.1591,86.88 28.3258,85.88 26,85.5C 25.3333,84.5 25.3333,83.5 26,82.5C 28,81.8333 30,81.1667 32,80.5C 32.3333,80.8333 32.6667,81.1667 33,81.5C 33.346,79.7818 33.846,78.1151 34.5,76.5C 33.9747,75.8076 33.3081,75.3076 32.5,75C 33.6174,73.1079 35.2841,72.2746 37.5,72.5 Z"/></g>
<g><path style="opacity:1" fill="#1f4919" d="M 111.5,75.5 C 111.821,77.0481 112.821,77.7148 114.5,77.5C 114.5,82.8333 114.5,88.1667 114.5,93.5C 116.554,93.6347 118.221,92.968 119.5,91.5C 119.5,92.5 119.5,93.5 119.5,94.5C 117.299,95.5664 114.965,96.233 112.5,96.5C 110.845,94.362 109.845,91.862 109.5,89C 110.087,84.3518 110.754,79.8518 111.5,75.5 Z"/></g>
<g><path style="opacity:1" fill="#5b2c5f" d="M 107.5,84.5 C 108.124,84.9169 108.457,85.5836 108.5,86.5C 107.183,89.4728 106.183,92.4728 105.5,95.5C 105.737,94.209 105.404,93.209 104.5,92.5C 104.5,91.1667 104.5,89.8333 104.5,88.5C 106.912,88.3059 107.912,86.9726 107.5,84.5 Z"/></g>
<g><path style="opacity:1" fill="#738e4e" d="M 37.5,94.5 C 36.2652,94.7214 35.2652,95.3881 34.5,96.5C 33.9986,94.3449 32.9986,92.6782 31.5,91.5C 31.1583,90.6618 30.4916,90.3284 29.5,90.5C 29.8333,89.5 30.5,88.8333 31.5,88.5C 33.717,87.6314 36.0504,87.298 38.5,87.5C 38.702,89.9496 38.3686,92.283 37.5,94.5 Z"/></g>
<g><path style="opacity:1" fill="#605d20" d="M 104.5,83.5 C 104.5,85.1667 104.5,86.8333 104.5,88.5C 104.5,89.8333 104.5,91.1667 104.5,92.5C 104.5,93.1667 104.167,93.5 103.5,93.5C 100.635,93.9452 98.1354,93.2785 96,91.5C 93.9592,92.4231 91.7925,92.7564 89.5,92.5C 89.5,89.8333 89.5,87.1667 89.5,84.5C 91.8333,84.5 94.1667,84.5 96.5,84.5C 96.7733,86.451 96.1066,87.951 94.5,89C 94.8333,89.3333 95.1667,89.6667 95.5,90C 98.0816,89.7446 100.748,89.578 103.5,89.5C 103.205,87.2646 103.539,85.2646 104.5,83.5 Z"/></g>
<g><path style="opacity:1" fill="#b1b77e" d="M 29.5,90.5 C 30.4916,90.3284 31.1583,90.6618 31.5,91.5C 29.1975,93.978 27.0308,96.6447 25,99.5C 24.3292,100.252 23.4959,100.586 22.5,100.5C 23.3519,97.7766 24.5186,95.11 26,92.5C 26.8159,91.1772 27.9826,90.5106 29.5,90.5 Z"/></g>
<g><path style="opacity:1" fill="#297921" d="M 119.5,94.5 C 120.833,94.5 122.167,94.5 123.5,94.5C 123.5,94.8333 123.5,95.1667 123.5,95.5C 119.29,96.3691 117.29,99.0358 117.5,103.5C 116.833,103.5 116.167,103.5 115.5,103.5C 114.634,101.173 113.634,98.8395 112.5,96.5C 114.965,96.233 117.299,95.5664 119.5,94.5 Z"/></g>
<g><path style="opacity:1" fill="#73734a" d="M 31.5,91.5 C 32.9986,92.6782 33.9986,94.3449 34.5,96.5C 35.2652,95.3881 36.2652,94.7214 37.5,94.5C 35.5488,97.7861 33.2154,100.786 30.5,103.5C 28.7179,104.72 26.7179,105.386 24.5,105.5C 24.6716,104.508 24.3382,103.842 23.5,103.5C 23.4431,102.391 23.1098,101.391 22.5,100.5C 23.4959,100.586 24.3292,100.252 25,99.5C 27.0308,96.6447 29.1975,93.978 31.5,91.5 Z"/></g>
<g><path style="opacity:1" fill="#6f746e" d="M 123.5,95.5 C 124.432,99.9497 122.432,102.616 117.5,103.5C 117.29,99.0358 119.29,96.3691 123.5,95.5 Z"/></g>
<g><path style="opacity:1" fill="#306625" d="M 104.5,92.5 C 105.404,93.209 105.737,94.209 105.5,95.5C 105.5,98.5 105.5,101.5 105.5,104.5C 106.833,104.5 108.167,104.5 109.5,104.5C 109.5,101.833 109.5,99.1667 109.5,96.5C 110.5,96.5 111.5,96.5 112.5,96.5C 113.634,98.8395 114.634,101.173 115.5,103.5C 113.23,110.103 108.897,114.769 102.5,117.5C 103.137,113.876 104.803,110.376 107.5,107C 106.167,106.667 104.833,106.333 103.5,106C 104.022,105.439 104.355,104.772 104.5,104C 103.344,101.367 102.344,98.7 101.5,96C 102.756,95.5831 103.423,94.7498 103.5,93.5C 104.167,93.5 104.5,93.1667 104.5,92.5 Z"/></g>
<g><path style="opacity:1" fill="#dedede" d="M 23.5,103.5 C 24.3382,103.842 24.6716,104.508 24.5,105.5C 25.2178,107.137 25.3845,108.803 25,110.5C 23.3096,112.603 21.4763,114.603 19.5,116.5C 16.4311,117.964 14.0978,117.131 12.5,114C 13.8495,109.443 16.6828,106.276 21,104.5C 22.7261,106.098 23.5594,105.765 23.5,103.5 Z"/></g>
<g><path style="opacity:1" fill="#747d47" d="M 90.5,113.5 C 88.8267,114.343 87.66,115.676 87,117.5C 86.6174,116.944 86.1174,116.611 85.5,116.5C 84.5,115.167 83.5,113.833 82.5,112.5C 82.8333,112.5 83.1667,112.5 83.5,112.5C 85.4486,110.695 87.7819,109.695 90.5,109.5C 94.1221,110.364 94.1221,111.697 90.5,113.5 Z"/></g>
<g><path style="opacity:1" fill="#a9ab72" d="M 90.5,113.5 C 90.5,114.5 90.5,115.5 90.5,116.5C 90.0074,118.806 89.6741,121.139 89.5,123.5C 87.5,123.5 85.5,123.5 83.5,123.5C 83.3939,120.921 84.0605,118.588 85.5,116.5C 86.1174,116.611 86.6174,116.944 87,117.5C 87.66,115.676 88.8267,114.343 90.5,113.5 Z"/></g>
<g><path style="opacity:1" fill="#61753f" d="M 90.5,116.5 C 93.3537,116.882 96.3537,116.882 99.5,116.5C 99.6941,120.005 100.694,120.338 102.5,117.5C 102.043,120.406 101.043,123.072 99.5,125.5C 97.9891,124.498 96.3224,123.831 94.5,123.5C 94.6309,122.624 94.2975,121.957 93.5,121.5C 91.4768,123.678 88.9768,125.012 86,125.5C 84.699,125.361 83.8656,124.695 83.5,123.5C 85.5,123.5 87.5,123.5 89.5,123.5C 89.6741,121.139 90.0074,118.806 90.5,116.5 Z"/></g>
<g><path style="opacity:1" fill="#499a34" d="M 63.5,126.5 C 66.1873,126.336 68.854,126.503 71.5,127C 72.9733,127.71 73.6399,128.876 73.5,130.5C 73.4226,131.75 72.756,132.583 71.5,133C 68.854,133.497 66.1873,133.664 63.5,133.5C 62.0975,132.069 60.4308,130.902 58.5,130C 59.056,129.617 59.3893,129.117 59.5,128.5C 60.9952,128.011 62.3285,127.345 63.5,126.5 Z"/></g>
<g><path style="opacity:1" fill="#8f9069" d="M 94.5,123.5 C 96.3224,123.831 97.9891,124.498 99.5,125.5C 98.2719,128.73 95.9386,130.396 92.5,130.5C 90.8562,127.397 91.5229,125.064 94.5,123.5 Z"/></g>
<g><path style="opacity:1" fill="#9ab08f" d="M 63.5,126.5 C 66.3035,125.362 69.3035,125.195 72.5,126C 73.756,126.417 74.4226,127.25 74.5,128.5C 74.8333,129.167 75.1667,129.833 75.5,130.5C 75.7947,132.735 75.4614,134.735 74.5,136.5C 74.7947,134.265 74.4614,132.265 73.5,130.5C 73.6399,128.876 72.9733,127.71 71.5,127C 68.854,126.503 66.1873,126.336 63.5,126.5 Z"/></g>
<g><path style="opacity:1" fill="#6b7d43" d="M 73.5,130.5 C 74.4614,132.265 74.7947,134.265 74.5,136.5C 71.7259,138.281 68.7259,139.615 65.5,140.5C 63.8008,140.66 62.1341,140.494 60.5,140C 62.1069,137.485 64.4402,136.151 67.5,136C 65.9336,135.392 64.6002,134.558 63.5,133.5C 66.1873,133.664 68.854,133.497 71.5,133C 72.756,132.583 73.4226,131.75 73.5,130.5 Z"/></g>
<g><path style="opacity:1" fill="#9a9c6c" d="M 59.5,128.5 C 59.3893,129.117 59.056,129.617 58.5,130C 60.4308,130.902 62.0975,132.069 63.5,133.5C 64.6002,134.558 65.9336,135.392 67.5,136C 64.4402,136.151 62.1069,137.485 60.5,140C 62.1341,140.494 63.8008,140.66 65.5,140.5C 57.9513,144.641 52.9513,142.641 50.5,134.5C 50.5427,133.584 50.8761,132.917 51.5,132.5C 53.913,133.68 54.913,135.68 54.5,138.5C 56.1667,138.5 57.8333,138.5 59.5,138.5C 59.33,137.178 59.6634,136.011 60.5,135C 59.0107,133.532 57.6774,132.032 56.5,130.5C 56.9731,129.094 57.9731,128.427 59.5,128.5 Z"/></g>
<g><path style="opacity:1" fill="#c7c98c" d="M 56.5,130.5 C 57.6774,132.032 59.0107,133.532 60.5,135C 59.6634,136.011 59.33,137.178 59.5,138.5C 57.8333,138.5 56.1667,138.5 54.5,138.5C 54.913,135.68 53.913,133.68 51.5,132.5C 52.7804,131.069 54.4471,130.402 56.5,130.5 Z"/></g>
<g><path style="opacity:1" fill="#449d33" d="M 115.5,144.5 C 115.67,145.822 115.337,146.989 114.5,148C 113.065,147.689 111.732,147.855 110.5,148.5C 109.719,147.263 108.719,146.263 107.5,145.5C 105.568,146.52 103.568,146.687 101.5,146C 102.756,145.583 103.423,144.75 103.5,143.5C 106.64,141.81 109.974,141.31 113.5,142C 114.381,142.708 115.047,143.542 115.5,144.5 Z"/></g>
<g><path style="opacity:1" fill="#659646" d="M 103.5,143.5 C 103.423,144.75 102.756,145.583 101.5,146C 103.568,146.687 105.568,146.52 107.5,145.5C 108.719,146.263 109.719,147.263 110.5,148.5C 111.732,147.855 113.065,147.689 114.5,148C 115.337,146.989 115.67,145.822 115.5,144.5C 116.931,145.78 117.598,147.447 117.5,149.5C 116.533,150.806 115.199,151.473 113.5,151.5C 111.236,150.781 108.903,150.448 106.5,150.5C 104.833,149.833 103.167,149.167 101.5,148.5C 100.29,148.068 99.2905,147.401 98.5,146.5C 99.8993,145.11 101.566,144.11 103.5,143.5 Z"/></g>
<g><path style="opacity:1" fill="#c3c58d" d="M 98.5,146.5 C 99.2905,147.401 100.29,148.068 101.5,148.5C 101.719,149.675 101.386,150.675 100.5,151.5C 97.5964,152.877 94.5964,153.877 91.5,154.5C 91.0178,149.318 93.3511,146.651 98.5,146.5 Z"/></g>
<g><path style="opacity:1" fill="#b2b77d" d="M 106.5,150.5 C 108.903,150.448 111.236,150.781 113.5,151.5C 113.714,153.144 113.38,154.644 112.5,156C 110.26,156.977 107.927,157.477 105.5,157.5C 105.5,157.167 105.5,156.833 105.5,156.5C 104.135,154.249 104.469,152.249 106.5,150.5 Z"/></g>
<g><path style="opacity:1" fill="#73744f" d="M 101.5,148.5 C 103.167,149.167 104.833,149.833 106.5,150.5C 104.469,152.249 104.135,154.249 105.5,156.5C 101.168,157.097 96.8351,157.263 92.5,157C 91.7476,156.329 91.4142,155.496 91.5,154.5C 94.5964,153.877 97.5964,152.877 100.5,151.5C 101.386,150.675 101.719,149.675 101.5,148.5 Z"/></g>
<g><path style="opacity:1" fill="#7c7f5a" d="M 117.5,149.5 C 118.705,150.672 118.705,152.005 117.5,153.5C 115.437,156.613 112.604,158.613 109,159.5C 107.319,159.392 106.152,158.725 105.5,157.5C 107.927,157.477 110.26,156.977 112.5,156C 113.38,154.644 113.714,153.144 113.5,151.5C 115.199,151.473 116.533,150.806 117.5,149.5 Z"/></g>
</svg>
